<svg width="15" height="15" viewBox="0 0 15 15" fill="none" xmlns="http://www.w3.org/2000/svg">
<path fill-rule="evenodd" clip-rule="evenodd" d="M7.5 0.000244141C3.35775 0.000244141 0 3.35799 0 7.50024C0 11.6425 3.35775 15.0002 7.5 15.0002C11.6423 15.0002 15 11.6425 15 7.50024C15 3.35799 11.6423 0.000244141 7.5 0.000244141ZM7.5 4.50024C6.70435 4.50024 5.94129 4.81631 5.37868 5.37892C4.81607 5.94153 4.5 6.70459 4.5 7.50024C4.5 8.29589 4.81607 9.05896 5.37868 9.62156C5.94129 10.1842 6.70435 10.5002 7.5 10.5002C8.29565 10.5002 9.05871 10.1842 9.62132 9.62156C10.1839 9.05896 10.5 8.29589 10.5 7.50024C10.5 6.70459 10.1839 5.94153 9.62132 5.37892C9.05871 4.81631 8.29565 4.50024 7.5 4.50024Z" fill="#FFCB01"/>
</svg>
