<svg width="19" height="23" viewBox="0 0 19 23" fill="none" xmlns="http://www.w3.org/2000/svg">
<path fill-rule="evenodd" clip-rule="evenodd" d="M12.1406 10.7343L16.5594 15.1541L12.1396 19.5739C11.9443 19.7692 11.6794 19.879 11.4031 19.8791H8.45833C8.18207 19.8791 7.91711 19.7693 7.72176 19.574C7.52641 19.3786 7.41667 19.1137 7.41667 18.8374V15.8905C7.41673 15.6143 7.52651 15.3494 7.72187 15.1541L12.1406 10.7343ZM14.7083 0.0832521C15.2339 0.0830857 15.7402 0.281592 16.1256 0.638978C16.511 0.996364 16.747 1.48622 16.7865 2.01034L16.7917 2.16659V6.35409C16.0047 6.20512 15.194 6.23966 14.4226 6.45501C13.6511 6.67036 12.9398 7.06072 12.3437 7.59575L12.1396 7.78846L6.24792 13.6812C5.7124 14.2167 5.38962 14.9286 5.33958 15.6843L5.33229 15.8905V18.8374C5.33238 19.1205 5.37093 19.4022 5.44688 19.6749L5.50937 19.8749H2.20833C1.68273 19.8751 1.17649 19.6766 0.791096 19.3192C0.405699 18.9618 0.169629 18.472 0.130209 17.9478L0.125 17.7916V2.16659C0.124834 1.64099 0.32334 1.13475 0.680726 0.749348C1.03811 0.363951 1.52796 0.127881 2.05208 0.0884605L2.20833 0.0832521H14.7083ZM18.0323 9.26138C18.3225 9.55157 18.5528 9.89609 18.7098 10.2753C18.8669 10.6544 18.9478 11.0608 18.9478 11.4713C18.9478 11.8817 18.8669 12.2881 18.7098 12.6673C18.5528 13.0465 18.3225 13.391 18.0323 13.6812L13.6146 9.26034C14.2006 8.67449 14.9953 8.34538 15.824 8.34538C16.6526 8.34538 17.4473 8.67449 18.0333 9.26034L18.0323 9.26138ZM8.45833 4.24992H4.29167C4.0154 4.24992 3.75045 4.35967 3.5551 4.55502C3.35975 4.75037 3.25 5.01532 3.25 5.29159C3.25 5.56785 3.35975 5.8328 3.5551 6.02816C3.75045 6.22351 4.0154 6.33325 4.29167 6.33325H8.45833C8.7346 6.33325 8.99955 6.22351 9.1949 6.02816C9.39025 5.8328 9.5 5.56785 9.5 5.29159C9.5 5.01532 9.39025 4.75037 9.1949 4.55502C8.99955 4.35967 8.7346 4.24992 8.45833 4.24992Z" fill="black"/>
</svg>
