<svg width="25" height="25" viewBox="0 0 25 25" fill="none" xmlns="http://www.w3.org/2000/svg">
<path d="M5.20833 13.7293V16.6563C5.20833 17.4168 5.625 18.1251 6.29166 18.4897L11.5 21.3334C12.125 21.6772 12.875 21.6772 13.5 21.3334L18.7083 18.4897C19.375 18.1251 19.7917 17.4168 19.7917 16.6563V13.7293L13.5 17.1668C12.875 17.5105 12.125 17.5105 11.5 17.1668L5.20833 13.7293ZM11.5 3.66675L2.71875 8.45842C2 8.85425 2 9.89592 2.71875 10.2918L11.5 15.0834C12.125 15.4272 12.875 15.4272 13.5 15.0834L21.875 10.5105V16.6668C21.875 17.2397 22.3437 17.7084 22.9167 17.7084C23.4896 17.7084 23.9583 17.2397 23.9583 16.6668V9.98967C23.9583 9.60425 23.75 9.2605 23.4167 9.073L13.5 3.66675C13.1922 3.50261 12.8488 3.41675 12.5 3.41675C12.1512 3.41675 11.8078 3.50261 11.5 3.66675Z" fill="black"/>
</svg>
