<svg width="25" height="25" viewBox="0 0 25 25" fill="none" xmlns="http://www.w3.org/2000/svg">
<path d="M8.33333 8.33333V7.29167C8.33333 6.1866 8.77232 5.12679 9.55372 4.34539C10.3351 3.56399 11.3949 3.125 12.5 3.125C13.6051 3.125 14.6649 3.56399 15.4463 4.34539C16.2277 5.12679 16.6667 6.1866 16.6667 7.29167V8.33333" stroke="black" stroke-width="2.46889" stroke-linecap="round"/>
<path fill-rule="evenodd" clip-rule="evenodd" d="M3.73541 7.90216C3.125 8.51258 3.125 9.49383 3.125 11.4584V14.5834C3.125 18.5115 3.125 20.4761 4.34583 21.6959C5.56666 22.9157 7.5302 22.9167 11.4583 22.9167H13.5417C17.4698 22.9167 19.4344 22.9167 20.6542 21.6959C21.874 20.4751 21.875 18.5115 21.875 14.5834V11.4584C21.875 9.49383 21.875 8.51258 21.2646 7.90216C20.6542 7.29175 19.6729 7.29175 17.7083 7.29175H7.29166C5.32708 7.29175 4.34583 7.29175 3.73541 7.90216ZM10.4167 12.5001C10.4167 12.2238 10.3069 11.9589 10.1116 11.7635C9.91621 11.5682 9.65126 11.4584 9.375 11.4584C9.09873 11.4584 8.83378 11.5682 8.63843 11.7635C8.44308 11.9589 8.33333 12.2238 8.33333 12.5001V14.5834C8.33333 14.8597 8.44308 15.1246 8.63843 15.32C8.83378 15.5153 9.09873 15.6251 9.375 15.6251C9.65126 15.6251 9.91621 15.5153 10.1116 15.32C10.3069 15.1246 10.4167 14.8597 10.4167 14.5834V12.5001ZM16.6667 12.5001C16.6667 12.2238 16.5569 11.9589 16.3616 11.7635C16.1662 11.5682 15.9013 11.4584 15.625 11.4584C15.3487 11.4584 15.0838 11.5682 14.8884 11.7635C14.6931 11.9589 14.5833 12.2238 14.5833 12.5001V14.5834C14.5833 14.8597 14.6931 15.1246 14.8884 15.32C15.0838 15.5153 15.3487 15.6251 15.625 15.6251C15.9013 15.6251 16.1662 15.5153 16.3616 15.32C16.5569 15.1246 16.6667 14.8597 16.6667 14.5834V12.5001Z" fill="black"/>
</svg>
