<svg width="25" height="25" viewBox="0 0 25 25" fill="none" xmlns="http://www.w3.org/2000/svg">
<path d="M12.4479 18.7499C12.8125 18.7499 13.1208 18.6239 13.3729 18.3718C13.625 18.1197 13.7507 17.8117 13.75 17.4478C13.7493 17.084 13.6236 16.7756 13.3729 16.5228C13.1222 16.2701 12.8139 16.1444 12.4479 16.1458C12.0819 16.1471 11.774 16.2732 11.524 16.5239C11.274 16.7746 11.1479 17.0826 11.1458 17.4478C11.1437 17.8131 11.2698 18.1215 11.524 18.3728C11.7781 18.6242 12.0861 18.7499 12.4479 18.7499ZM11.5104 14.7395H13.4375C13.4375 14.1666 13.5028 13.7152 13.6333 13.3853C13.7639 13.0555 14.1326 12.6041 14.7396 12.0312C15.191 11.5798 15.5469 11.1499 15.8073 10.7416C16.0677 10.3333 16.1979 9.84298 16.1979 9.27076C16.1979 8.29854 15.842 7.55201 15.1302 7.03118C14.4184 6.51034 13.5764 6.24992 12.6042 6.24992C11.6146 6.24992 10.8118 6.51034 10.1958 7.03118C9.57986 7.55201 9.15 8.17701 8.90625 8.90618L10.625 9.58326C10.7118 9.27076 10.9073 8.93222 11.2115 8.56763C11.5156 8.20305 11.9799 8.02076 12.6042 8.02076C13.1597 8.02076 13.5764 8.17284 13.8542 8.47701C14.1319 8.78117 14.2708 9.1152 14.2708 9.47909C14.2708 9.82631 14.1667 10.152 13.9583 10.4562C13.75 10.7603 13.4896 11.0423 13.1771 11.302C12.4132 11.9791 11.9444 12.4912 11.7708 12.8385C11.5972 13.1857 11.5104 13.8194 11.5104 14.7395ZM12.5 22.9166C11.059 22.9166 9.70486 22.6433 8.4375 22.0968C7.17014 21.5503 6.0677 20.8079 5.1302 19.8697C4.1927 18.9315 3.45069 17.8291 2.90416 16.5624C2.35764 15.2958 2.08402 13.9416 2.08333 12.4999C2.08264 11.0583 2.35625 9.70409 2.90416 8.43743C3.45208 7.17076 4.19409 6.06833 5.1302 5.13013C6.06632 4.19194 7.16875 3.44992 8.4375 2.90409C9.70625 2.35826 11.0604 2.08465 12.5 2.08326C13.9396 2.08187 15.2937 2.35548 16.5625 2.90409C17.8312 3.4527 18.9337 4.19472 19.8698 5.13013C20.8059 6.06555 21.5483 7.16798 22.0969 8.43743C22.6455 9.70687 22.9187 11.061 22.9167 12.4999C22.9146 13.9388 22.641 15.293 22.0958 16.5624C21.5507 17.8319 20.8087 18.9343 19.8698 19.8697C18.9309 20.8051 17.8285 21.5475 16.5625 22.0968C15.2965 22.6461 13.9424 22.9194 12.5 22.9166Z" fill="black"/>
</svg>
