<svg width="15" height="15" viewBox="0 0 15 15" fill="none" xmlns="http://www.w3.org/2000/svg">
<path d="M2.25 12.75V10.2708L9.95 2.58542C10.0667 2.47847 10.1956 2.39583 10.3368 2.3375C10.4779 2.27917 10.6261 2.25 10.7813 2.25C10.9364 2.25 11.0871 2.27917 11.2333 2.3375C11.3796 2.39583 11.5059 2.48333 11.6125 2.6L12.4146 3.41667C12.5312 3.52361 12.6164 3.65 12.6701 3.79583C12.7238 3.94167 12.7504 4.0875 12.75 4.23333C12.75 4.38889 12.7234 4.53725 12.6701 4.67842C12.6168 4.81958 12.5316 4.94831 12.4146 5.06458L4.72917 12.75H2.25ZM10.7667 5.05L11.5833 4.23333L10.7667 3.41667L9.95 4.23333L10.7667 5.05Z" fill="white"/>
</svg>
